<mxfile host="app.diagrams.net" modified="2023-08-29T21:02:53.632Z" agent="Mozilla/5.0 (X11; Ubuntu; Linux x86_64; rv:109.0) Gecko/20100101 Firefox/116.0" etag="L8X9P3Z-NamIjA7JN2OG" version="21.6.8" type="device">
  <diagram name="Seite-1" id="YAr1CqjWRDItSa-sj4Ly">
    <mxGraphModel dx="1364" dy="795" grid="1" gridSize="10" guides="1" tooltips="1" connect="1" arrows="1" fold="1" page="1" pageScale="1" pageWidth="827" pageHeight="1169" math="0" shadow="0">
      <root>
        <mxCell id="0" />
        <mxCell id="1" parent="0" />
        <mxCell id="lm4NCH0D7gExTKU5RXeK-1" value="" style="whiteSpace=wrap;html=1;aspect=fixed;" parent="1" vertex="1">
          <mxGeometry x="280" y="120" width="40" height="40" as="geometry" />
        </mxCell>
        <mxCell id="lm4NCH0D7gExTKU5RXeK-6" value="" style="whiteSpace=wrap;html=1;aspect=fixed;" parent="1" vertex="1">
          <mxGeometry x="280" y="160" width="40" height="40" as="geometry" />
        </mxCell>
        <mxCell id="lm4NCH0D7gExTKU5RXeK-7" value="" style="whiteSpace=wrap;html=1;aspect=fixed;" parent="1" vertex="1">
          <mxGeometry x="280" y="200" width="40" height="40" as="geometry" />
        </mxCell>
        <mxCell id="lm4NCH0D7gExTKU5RXeK-8" value="" style="whiteSpace=wrap;html=1;aspect=fixed;" parent="1" vertex="1">
          <mxGeometry x="320" y="200" width="40" height="40" as="geometry" />
        </mxCell>
        <mxCell id="lm4NCH0D7gExTKU5RXeK-9" value="" style="whiteSpace=wrap;html=1;aspect=fixed;" parent="1" vertex="1">
          <mxGeometry x="360" y="200" width="40" height="40" as="geometry" />
        </mxCell>
        <mxCell id="lm4NCH0D7gExTKU5RXeK-2" value="" style="whiteSpace=wrap;html=1;aspect=fixed;fillColor=#f8cecc;strokeColor=#b85450;" parent="1" vertex="1">
          <mxGeometry x="320" y="120" width="40" height="40" as="geometry" />
        </mxCell>
        <mxCell id="lm4NCH0D7gExTKU5RXeK-3" value="" style="whiteSpace=wrap;html=1;aspect=fixed;fillColor=#f8cecc;strokeColor=#b85450;" parent="1" vertex="1">
          <mxGeometry x="360" y="120" width="40" height="40" as="geometry" />
        </mxCell>
        <mxCell id="lm4NCH0D7gExTKU5RXeK-4" value="" style="whiteSpace=wrap;html=1;aspect=fixed;fillColor=#f8cecc;strokeColor=#b85450;" parent="1" vertex="1">
          <mxGeometry x="360" y="160" width="40" height="40" as="geometry" />
        </mxCell>
        <mxCell id="lm4NCH0D7gExTKU5RXeK-5" value="" style="whiteSpace=wrap;html=1;aspect=fixed;fillColor=#f8cecc;strokeColor=#b85450;" parent="1" vertex="1">
          <mxGeometry x="320" y="160" width="40" height="40" as="geometry" />
        </mxCell>
        <mxCell id="lm4NCH0D7gExTKU5RXeK-10" value="" style="ellipse;html=1;aspect=fixed;fontColor=default;whiteSpace=wrap;opacity=80;" parent="1" vertex="1">
          <mxGeometry x="315" y="116" width="10" height="10" as="geometry" />
        </mxCell>
        <mxCell id="lm4NCH0D7gExTKU5RXeK-11" value="" style="ellipse;whiteSpace=wrap;html=1;aspect=fixed;opacity=80;" parent="1" vertex="1">
          <mxGeometry x="395" y="195" width="10" height="10" as="geometry" />
        </mxCell>
        <mxCell id="lm4NCH0D7gExTKU5RXeK-12" value="(0, 4)" style="text;html=1;strokeColor=none;fillColor=none;align=center;verticalAlign=middle;whiteSpace=wrap;rounded=0;" parent="1" vertex="1">
          <mxGeometry x="290" y="90" width="60" height="30" as="geometry" />
        </mxCell>
        <mxCell id="lm4NCH0D7gExTKU5RXeK-13" value="(8,&amp;nbsp;&amp;nbsp; 12)" style="text;html=1;align=center;verticalAlign=middle;resizable=0;points=[];autosize=1;strokeColor=none;fillColor=none;" parent="1" vertex="1">
          <mxGeometry x="400" y="185" width="60" height="30" as="geometry" />
        </mxCell>
        <mxCell id="lm4NCH0D7gExTKU5RXeK-14" value="(0, 0)" style="text;html=1;align=center;verticalAlign=middle;resizable=0;points=[];autosize=1;strokeColor=none;fillColor=none;" parent="1" vertex="1">
          <mxGeometry x="240" y="90" width="50" height="30" as="geometry" />
        </mxCell>
        <mxCell id="lm4NCH0D7gExTKU5RXeK-15" value="(12, 16)" style="text;html=1;align=center;verticalAlign=middle;resizable=0;points=[];autosize=1;strokeColor=none;fillColor=none;" parent="1" vertex="1">
          <mxGeometry x="399" y="225" width="60" height="30" as="geometry" />
        </mxCell>
        <mxCell id="lm4NCH0D7gExTKU5RXeK-16" value="" style="rhombus;whiteSpace=wrap;html=1;opacity=80;" parent="1" vertex="1">
          <mxGeometry x="276" y="115" width="10" height="10" as="geometry" />
        </mxCell>
        <mxCell id="lm4NCH0D7gExTKU5RXeK-19" value="" style="rhombus;whiteSpace=wrap;html=1;opacity=80;" parent="1" vertex="1">
          <mxGeometry x="395" y="235" width="10" height="10" as="geometry" />
        </mxCell>
      </root>
    </mxGraphModel>
  </diagram>
</mxfile>
